<svg width="159" height="33" viewBox="0 0 159 33" fill="none" xmlns="http://www.w3.org/2000/svg">
<path d="M22.4873 16.6533C22.4873 17.9372 22.2438 19.1436 21.7568 20.2725C21.2699 21.4014 20.6058 22.3919 19.7646 23.2441C18.9235 24.0853 17.9385 24.7549 16.8096 25.2529C15.6807 25.7399 14.4743 25.9889 13.1904 26H0.44043V0.5H3.84375V22.5967H13.1904C14.0094 22.5967 14.7731 22.4417 15.4814 22.1318C16.2008 21.8109 16.8262 21.3848 17.3574 20.8535C17.8887 20.3112 18.3092 19.6803 18.6191 18.9609C18.929 18.2415 19.084 17.4723 19.084 16.6533C19.084 15.8343 18.929 15.0651 18.6191 14.3457C18.3092 13.6263 17.8887 13.001 17.3574 12.4697C16.8262 11.9274 16.2008 11.5013 15.4814 11.1914C14.7731 10.8704 14.0094 10.7044 13.1904 10.6934H5.55371V7.30664H13.1904C14.4743 7.30664 15.6807 7.55566 16.8096 8.05371C17.9385 8.54069 18.9235 9.21029 19.7646 10.0625C20.6058 10.9036 21.2699 11.8942 21.7568 13.0342C22.2438 14.1631 22.4873 15.3695 22.4873 16.6533ZM44.75 10.6934H32C31.6458 10.6934 31.3138 10.7653 31.0039 10.9092C30.694 11.042 30.4229 11.2246 30.1904 11.457C29.958 11.6895 29.7754 11.9606 29.6426 12.2705C29.5098 12.5804 29.4434 12.9069 29.4434 13.25V26H26.04V13.25C26.04 12.4199 26.195 11.6452 26.5049 10.9258C26.8148 10.2064 27.2409 9.58105 27.7832 9.0498C28.3255 8.50749 28.9564 8.08138 29.6758 7.77148C30.3952 7.46159 31.1699 7.30664 32 7.30664H44.75V10.6934ZM51.7393 3.05664C51.7393 3.41081 51.6729 3.74284 51.54 4.05273C51.4072 4.35156 51.2246 4.61719 50.9922 4.84961C50.7598 5.08203 50.4886 5.26465 50.1787 5.39746C49.8688 5.53027 49.5423 5.59668 49.1992 5.59668C48.8451 5.59668 48.513 5.53027 48.2031 5.39746C47.8932 5.26465 47.6221 5.08203 47.3896 4.84961C47.1572 4.61719 46.9746 4.35156 46.8418 4.05273C46.709 3.74284 46.6426 3.41081 46.6426 3.05664C46.6426 2.71354 46.709 2.38704 46.8418 2.07715C46.9746 1.76725 47.1572 1.49609 47.3896 1.26367C47.6221 1.03125 47.8932 0.848633 48.2031 0.71582C48.513 0.57194 48.8451 0.5 49.1992 0.5C49.5423 0.5 49.8688 0.57194 50.1787 0.71582C50.4886 0.848633 50.7598 1.03125 50.9922 1.26367C51.2246 1.49609 51.4072 1.76725 51.54 2.07715C51.6729 2.38704 51.7393 2.71354 51.7393 3.05664ZM50.8926 26H47.4893V7.30664H50.8926V26ZM76.6416 26.8467C76.6416 27.6768 76.4811 28.4515 76.1602 29.1709C75.8503 29.8903 75.4242 30.5212 74.8818 31.0635C74.3506 31.6058 73.7197 32.0319 72.9893 32.3418C72.2699 32.6517 71.5007 32.8066 70.6816 32.8066H57.085V29.4033H70.6816C71.0247 29.4033 71.3512 29.3369 71.6611 29.2041C71.971 29.0713 72.2422 28.8887 72.4746 28.6562C72.707 28.4238 72.8896 28.1527 73.0225 27.8428C73.1663 27.5329 73.2383 27.2008 73.2383 26.8467V10.6934H63.8916C63.0726 10.7044 62.3034 10.8704 61.584 11.1914C60.8757 11.5013 60.2559 11.9274 59.7246 12.4697C59.1934 13.001 58.7728 13.6263 58.4629 14.3457C58.1641 15.0651 58.0146 15.8343 58.0146 16.6533C58.0146 17.4723 58.1641 18.2415 58.4629 18.9609C58.7728 19.6693 59.1934 20.2946 59.7246 20.8369C60.2559 21.3682 60.8757 21.7943 61.584 22.1152C62.3034 22.4251 63.0726 22.5856 63.8916 22.5967H71.5449V26H63.8916C62.6077 25.9889 61.4014 25.7399 60.2725 25.2529C59.1436 24.7549 58.1585 24.0853 57.3174 23.2441C56.4873 22.3919 55.8288 21.4014 55.3418 20.2725C54.8548 19.1436 54.6113 17.9372 54.6113 16.6533C54.6113 15.3695 54.8548 14.1631 55.3418 13.0342C55.8288 11.9053 56.4873 10.9202 57.3174 10.0791C58.1585 9.22689 59.1436 8.55729 60.2725 8.07031C61.4014 7.57227 62.6077 7.31771 63.8916 7.30664H76.6416V26.8467ZM102.374 26.8467C102.374 27.6768 102.214 28.4515 101.893 29.1709C101.583 29.8903 101.157 30.5212 100.614 31.0635C100.083 31.6058 99.4521 32.0319 98.7217 32.3418C98.0023 32.6517 97.2331 32.8066 96.4141 32.8066H82.8174V29.4033H96.4141C96.7572 29.4033 97.0837 29.3369 97.3936 29.2041C97.7035 29.0713 97.9746 28.8887 98.207 28.6562C98.4395 28.4238 98.6221 28.1527 98.7549 27.8428C98.8988 27.5329 98.9707 27.2008 98.9707 26.8467V10.6934H89.624C88.805 10.7044 88.0358 10.8704 87.3164 11.1914C86.6081 11.5013 85.9883 11.9274 85.457 12.4697C84.9258 13.001 84.5052 13.6263 84.1953 14.3457C83.8965 15.0651 83.7471 15.8343 83.7471 16.6533C83.7471 17.4723 83.8965 18.2415 84.1953 18.9609C84.5052 19.6693 84.9258 20.2946 85.457 20.8369C85.9883 21.3682 86.6081 21.7943 87.3164 22.1152C88.0358 22.4251 88.805 22.5856 89.624 22.5967H97.2773V26H89.624C88.3402 25.9889 87.1338 25.7399 86.0049 25.2529C84.876 24.7549 83.891 24.0853 83.0498 23.2441C82.2197 22.3919 81.5612 21.4014 81.0742 20.2725C80.5872 19.1436 80.3438 17.9372 80.3438 16.6533C80.3438 15.3695 80.5872 14.1631 81.0742 13.0342C81.5612 11.9053 82.2197 10.9202 83.0498 10.0791C83.891 9.22689 84.876 8.55729 86.0049 8.07031C87.1338 7.57227 88.3402 7.31771 89.624 7.30664H102.374V26.8467ZM111.505 3.05664C111.505 3.41081 111.438 3.74284 111.306 4.05273C111.173 4.35156 110.99 4.61719 110.758 4.84961C110.525 5.08203 110.254 5.26465 109.944 5.39746C109.634 5.53027 109.308 5.59668 108.965 5.59668C108.611 5.59668 108.279 5.53027 107.969 5.39746C107.659 5.26465 107.388 5.08203 107.155 4.84961C106.923 4.61719 106.74 4.35156 106.607 4.05273C106.475 3.74284 106.408 3.41081 106.408 3.05664C106.408 2.71354 106.475 2.38704 106.607 2.07715C106.74 1.76725 106.923 1.49609 107.155 1.26367C107.388 1.03125 107.659 0.848633 107.969 0.71582C108.279 0.57194 108.611 0.5 108.965 0.5C109.308 0.5 109.634 0.57194 109.944 0.71582C110.254 0.848633 110.525 1.03125 110.758 1.26367C110.99 1.49609 111.173 1.76725 111.306 2.07715C111.438 2.38704 111.505 2.71354 111.505 3.05664ZM110.658 26H107.255V7.30664H110.658V26ZM122.13 26H118.727V10.6934H113.63V7.30664H118.727V0.5H122.13V7.30664H134.033V10.6934H122.13V26ZM158.438 26.8467C158.438 27.6768 158.283 28.4515 157.973 29.1709C157.663 29.8903 157.237 30.5212 156.694 31.0635C156.163 31.6058 155.532 32.0319 154.802 32.3418C154.082 32.6517 153.313 32.8066 152.494 32.8066H138.897V29.4033H152.494C152.837 29.4033 153.164 29.3369 153.474 29.2041C153.784 29.0713 154.055 28.8887 154.287 28.6562C154.52 28.4238 154.702 28.1527 154.835 27.8428C154.968 27.5329 155.034 27.2008 155.034 26.8467V26H145.688C144.404 26 143.197 25.7565 142.068 25.2695C140.939 24.7715 139.954 24.1019 139.113 23.2607C138.283 22.4085 137.625 21.418 137.138 20.2891C136.651 19.1491 136.407 17.9372 136.407 16.6533V7.30664H139.811V16.6533C139.811 17.4723 139.96 18.2415 140.259 18.9609C140.569 19.6693 140.989 20.2946 141.521 20.8369C142.052 21.3682 142.672 21.7943 143.38 22.1152C144.099 22.4251 144.868 22.5856 145.688 22.5967H155.034V7.30664H158.438V26.8467Z" fill="white"/>
</svg>
