<svg width="159" height="33" viewBox="0 0 159 33" fill="none" xmlns="http://www.w3.org/2000/svg">
<path d="M22.48 16.65C22.48 17.942 22.242 19.1547 21.766 20.288C21.29 21.3987 20.6213 22.3847 19.76 23.246C18.9213 24.1073 17.9353 24.7873 16.802 25.286C15.6913 25.762 14.49 26 13.198 26H0.448V0.499998H3.848V22.6H13.198C14.286 22.6 15.272 22.328 16.156 21.784C17.0627 21.24 17.7767 20.526 18.298 19.642C18.8193 18.7353 19.08 17.738 19.08 16.65C19.08 15.562 18.8193 14.576 18.298 13.692C17.7767 12.7853 17.0627 12.06 16.156 11.516C15.272 10.972 14.286 10.7 13.198 10.7H5.548V7.3H13.198C14.49 7.3 15.6913 7.54933 16.802 8.048C17.9353 8.524 18.9213 9.19267 19.76 10.054C20.6213 10.9153 21.29 11.9127 21.766 13.046C22.242 14.1567 22.48 15.358 22.48 16.65ZM44.7444 10.7H31.9944C31.2918 10.7 30.6911 10.9493 30.1924 11.448C29.6938 11.9467 29.4444 12.5473 29.4444 13.25V26H26.0444V13.25C26.0444 12.1393 26.3051 11.142 26.8264 10.258C27.3704 9.35133 28.0958 8.63733 29.0024 8.116C29.9091 7.572 30.9064 7.3 31.9944 7.3H44.7444V10.7ZM51.7468 3.05C51.7468 3.75267 51.4975 4.35333 50.9988 4.852C50.5002 5.35067 49.8995 5.6 49.1968 5.6C48.4942 5.6 47.8935 5.35067 47.3948 4.852C46.8962 4.35333 46.6468 3.75267 46.6468 3.05C46.6468 2.34733 46.8962 1.74667 47.3948 1.248C47.8935 0.749331 48.4942 0.499998 49.1968 0.499998C49.8995 0.499998 50.5002 0.749331 50.9988 1.248C51.4975 1.74667 51.7468 2.34733 51.7468 3.05ZM50.8968 26H47.4968V7.3H50.8968V26ZM76.6396 26.85C76.6396 27.938 76.3676 28.9353 75.8236 29.842C75.3023 30.7487 74.5883 31.4627 73.6816 31.984C72.7749 32.528 71.7776 32.8 70.6896 32.8H57.0896V29.4H70.6896C71.3923 29.4 71.9929 29.1507 72.4916 28.652C72.9903 28.1533 73.2396 27.5527 73.2396 26.85V10.7H63.8896C62.8016 10.7 61.8156 10.972 60.9316 11.516C60.0476 12.06 59.3336 12.7853 58.7896 13.692C58.2683 14.576 58.0076 15.562 58.0076 16.65C58.0076 17.738 58.2683 18.7353 58.7896 19.642C59.3336 20.526 60.0476 21.24 60.9316 21.784C61.8156 22.3053 62.8016 22.5773 63.8896 22.6H71.5396V26H63.8896C62.5976 26 61.3849 25.762 60.2516 25.286C59.1409 24.7873 58.1549 24.1073 57.2936 23.246C56.4549 22.3847 55.7976 21.3987 55.3216 20.288C54.8456 19.1547 54.6076 17.942 54.6076 16.65C54.6076 15.358 54.8456 14.1567 55.3216 13.046C55.7976 11.9127 56.4549 10.9153 57.2936 10.054C58.1549 9.19267 59.1409 8.524 60.2516 8.048C61.3849 7.54933 62.5976 7.3 63.8896 7.3H76.6396V26.85ZM102.372 26.85C102.372 27.938 102.1 28.9353 101.556 29.842C101.035 30.7487 100.321 31.4627 99.414 31.984C98.5074 32.528 97.51 32.8 96.422 32.8H82.822V29.4H96.422C97.1247 29.4 97.7254 29.1507 98.224 28.652C98.7227 28.1533 98.972 27.5527 98.972 26.85V10.7H89.622C88.534 10.7 87.548 10.972 86.664 11.516C85.78 12.06 85.066 12.7853 84.522 13.692C84.0007 14.576 83.74 15.562 83.74 16.65C83.74 17.738 84.0007 18.7353 84.522 19.642C85.066 20.526 85.78 21.24 86.664 21.784C87.548 22.3053 88.534 22.5773 89.622 22.6H97.272V26H89.622C88.33 26 87.1174 25.762 85.984 25.286C84.8734 24.7873 83.8874 24.1073 83.026 23.246C82.1874 22.3847 81.53 21.3987 81.054 20.288C80.578 19.1547 80.34 17.942 80.34 16.65C80.34 15.358 80.578 14.1567 81.054 13.046C81.53 11.9127 82.1874 10.9153 83.026 10.054C83.8874 9.19267 84.8734 8.524 85.984 8.048C87.1174 7.54933 88.33 7.3 89.622 7.3H102.372V26.85ZM111.512 3.05C111.512 3.75267 111.263 4.35333 110.764 4.852C110.266 5.35067 109.665 5.6 108.962 5.6C108.26 5.6 107.659 5.35067 107.16 4.852C106.662 4.35333 106.412 3.75267 106.412 3.05C106.412 2.34733 106.662 1.74667 107.16 1.248C107.659 0.749331 108.26 0.499998 108.962 0.499998C109.665 0.499998 110.266 0.749331 110.764 1.248C111.263 1.74667 111.512 2.34733 111.512 3.05ZM110.662 26H107.262V7.3H110.662V26ZM122.125 26H118.725V10.7H113.625V7.3H118.725V0.499998H122.125V7.3H134.025V10.7H122.125V26ZM158.44 26.85C158.44 27.938 158.168 28.9353 157.624 29.842C157.102 30.7487 156.388 31.4627 155.482 31.984C154.598 32.528 153.6 32.8 152.49 32.8H138.89V29.4H152.49C153.192 29.4 153.793 29.1507 154.292 28.652C154.79 28.1533 155.04 27.5527 155.04 26.85V26H145.69C144.398 26 143.185 25.762 142.052 25.286C140.941 24.7873 139.955 24.1073 139.094 23.246C138.255 22.3847 137.598 21.3987 137.122 20.288C136.646 19.1547 136.408 17.942 136.408 16.65V7.3H139.808V16.65C139.808 17.738 140.068 18.7353 140.59 19.642C141.134 20.526 141.848 21.24 142.732 21.784C143.616 22.3053 144.602 22.5773 145.69 22.6H155.04V7.3H158.44V26.85Z" fill="#3751FF"/>
</svg>
