<svg width="60" height="60" viewBox="0 0 60 60" fill="none" xmlns="http://www.w3.org/2000/svg">
<g clip-path="url(#clip0_442_287)">
<path opacity="0.7" d="M30 60C46.5685 60 60 46.5685 60 30C60 13.4315 46.5685 0 30 0C13.4315 0 0 13.4315 0 30C0 46.5685 13.4315 60 30 60Z" fill="#0A0219"/>
<mask id="mask0_442_287" style="mask-type:alpha" maskUnits="userSpaceOnUse" x="10" y="10" width="40" height="40">
<path d="M50 10H10V50H50V10Z" fill="#D9D9D9"/>
</mask>
<g mask="url(#mask0_442_287)">
<path d="M13.3341 40.7119C17.5478 40.7119 21.7614 40.7198 25.9751 40.7102C30.7137 40.6997 34.7749 37.7615 36.2663 33.2823C38.3278 27.0942 34.2247 20.3593 27.7772 19.3477C27.7354 19.3407 27.691 19.3434 27.5552 19.3364C27.8895 19.6202 28.1698 19.8579 28.4301 20.0781C27.8964 20.6127 27.4472 21.0619 27.0154 21.4946C25.9385 20.4168 24.8424 19.3199 23.7768 18.2525C24.8503 17.1791 25.9515 16.0778 27.0302 15C27.4324 15.4031 27.8808 15.8523 28.3639 16.3372C28.0671 16.6184 27.7319 16.9353 27.3723 17.2757C28.0984 17.4298 28.7792 17.5177 29.4234 17.7188C34.4476 19.292 37.6183 22.6368 38.5333 27.8307C39.7277 34.6074 35.4305 40.8712 28.7183 42.3678C27.7841 42.5759 26.8039 42.6464 25.8436 42.6533C21.6735 42.6838 17.5034 42.6664 13.3333 42.6664C13.3341 42.0152 13.3341 41.364 13.3341 40.7119Z" fill="#00A3FF"/>
<path d="M13.3341 29.0466C13.4334 28.4381 13.4978 27.8208 13.638 27.2219C14.5556 23.3112 16.8182 20.4409 20.3728 18.583C20.641 18.4429 20.9143 18.314 21.2129 18.166C21.5037 18.745 21.7901 19.3126 22.0914 19.9115C18.5516 21.5065 16.2123 24.1034 15.4906 27.9549C14.7732 31.7864 15.965 35.0615 18.6813 37.85C18.4236 38.0824 18.185 38.2975 17.9456 38.5116C17.7114 38.7206 17.4773 38.9287 17.23 39.1489C16.1461 38.0337 15.2303 36.8227 14.5704 35.4254C13.92 34.0481 13.5187 32.6047 13.3881 31.0864C13.3803 30.9924 13.3524 30.8992 13.3341 30.8061C13.3341 30.2202 13.3341 29.6334 13.3341 29.0466Z" fill="#00A3FF"/>
<path d="M26.0501 23.1172C29.8172 23.1215 32.8834 26.193 32.8834 29.96C32.8834 33.7392 29.7971 36.8133 26.0153 36.8011C22.2509 36.7889 19.1925 33.7105 19.1995 29.9409C19.2064 26.1773 22.2831 23.1128 26.0501 23.1172ZM21.1548 29.9661C21.1574 32.6562 23.3565 34.8492 26.0493 34.8466C28.7385 34.844 30.9324 32.6432 30.9289 29.9513C30.9254 27.2603 28.7281 25.0699 26.0336 25.0725C23.3426 25.0751 21.1522 27.2725 21.1548 29.9661Z" fill="#00A3FF"/>
<path d="M42.9009 40.6299C42.5997 40.3478 42.2994 40.0666 42.033 39.8176C42.5031 39.3467 42.9514 38.8974 43.3702 38.4761C44.4132 39.519 45.5136 40.6203 46.5896 41.6972C45.531 42.7541 44.4288 43.8554 43.3423 44.9402C42.9332 44.531 42.49 44.0879 42.0208 43.6186C42.3124 43.3592 42.6319 43.0736 42.9514 42.789C42.9271 42.748 42.9036 42.708 42.8792 42.6671C41.6386 42.6671 40.398 42.6671 39.1574 42.6671C37.9212 42.6671 36.6849 42.6671 35.4243 42.6671C35.4243 42.0124 35.4243 41.3804 35.4243 40.7144C37.9116 40.7144 40.3902 40.7144 42.8687 40.7144C42.8809 40.6856 42.8905 40.6578 42.9009 40.6299Z" fill="#00A3FF"/>
<path d="M25.0451 33.2156C24.3016 32.4721 23.5303 31.7008 22.7781 30.9486C23.2116 30.5168 23.6609 30.0684 24.131 29.6001C24.4087 29.8865 24.7151 30.2034 25.0303 30.529C26.021 29.5269 26.9787 28.5588 27.9119 27.6143C28.4064 28.1105 28.8539 28.5606 29.2761 28.9846C27.8936 30.3671 26.4702 31.7913 25.0451 33.2156Z" fill="#00A3FF"/>
</g>
</g>
<defs>
<clipPath id="clip0_442_287">
<rect width="60" height="60" fill="white"/>
</clipPath>
</defs>
</svg>
