<svg width="60" height="60" viewBox="0 0 60 60" fill="none" xmlns="http://www.w3.org/2000/svg">
<circle opacity="0.7" cx="30" cy="30" r="30" fill="#0A0219"/>
<mask id="mask0_318_288" style="mask-type:alpha" maskUnits="userSpaceOnUse" x="10" y="10" width="40" height="40">
<rect x="10" y="10" width="40" height="40" fill="#D9D9D9"/>
</mask>
<g mask="url(#mask0_318_288)">
<path d="M13.3341 40.7119C17.5478 40.7119 21.7614 40.7198 25.9751 40.7102C30.7137 40.6997 34.7749 37.7615 36.2663 33.2823C38.3278 27.0942 34.2247 20.3593 27.7772 19.3477C27.7354 19.3407 27.691 19.3434 27.5552 19.3364C27.8895 19.6202 28.1698 19.8579 28.4301 20.0781C27.8964 20.6127 27.4472 21.0619 27.0154 21.4946C25.9385 20.4168 24.8424 19.3199 23.7768 18.2525C24.8503 17.1791 25.9515 16.0778 27.0302 15C27.4324 15.4031 27.8808 15.8523 28.3639 16.3372C28.0671 16.6184 27.7319 16.9353 27.3723 17.2757C28.0984 17.4298 28.7792 17.5177 29.4234 17.7188C34.4476 19.292 37.6183 22.6368 38.5333 27.8307C39.7277 34.6074 35.4305 40.8712 28.7183 42.3678C27.7841 42.5759 26.8039 42.6464 25.8436 42.6533C21.6735 42.6838 17.5034 42.6664 13.3333 42.6664C13.3341 42.0152 13.3341 41.364 13.3341 40.7119Z" fill="#390297"/>
<path d="M13.3342 29.0466C13.4335 28.4381 13.4979 27.8208 13.6381 27.2219C14.5557 23.3112 16.8183 20.4409 20.3729 18.583C20.6411 18.4429 20.9144 18.314 21.213 18.166C21.5038 18.745 21.7902 19.3126 22.0915 19.9115C18.5517 21.5065 16.2124 24.1034 15.4907 27.9549C14.7733 31.7864 15.9651 35.0615 18.6814 37.85C18.4237 38.0824 18.1851 38.2975 17.9457 38.5116C17.7115 38.7206 17.4774 38.9287 17.2301 39.1489C16.1462 38.0337 15.2304 36.8227 14.5705 35.4254C13.9201 34.0481 13.5188 32.6047 13.3882 31.0864C13.3804 30.9924 13.3525 30.8992 13.3342 30.8061C13.3342 30.2202 13.3342 29.6334 13.3342 29.0466Z" fill="#390297"/>
<path d="M26.0501 23.1172C29.8172 23.1215 32.8834 26.193 32.8834 29.96C32.8834 33.7392 29.7971 36.8133 26.0153 36.8011C22.2509 36.7889 19.1925 33.7105 19.1995 29.9409C19.2064 26.1773 22.2831 23.1128 26.0501 23.1172ZM21.1548 29.9661C21.1574 32.6562 23.3565 34.8492 26.0493 34.8466C28.7385 34.844 30.9324 32.6432 30.9289 29.9513C30.9254 27.2603 28.7281 25.0699 26.0336 25.0725C23.3426 25.0751 21.1522 27.2725 21.1548 29.9661Z" fill="#390297"/>
<path d="M42.901 40.6299C42.5998 40.3478 42.2995 40.0666 42.0331 39.8176C42.5032 39.3467 42.9515 38.8974 43.3703 38.4761C44.4133 39.519 45.5137 40.6203 46.5897 41.6972C45.5311 42.7541 44.4289 43.8554 43.3424 44.9402C42.9333 44.531 42.4901 44.0879 42.0209 43.6186C42.3125 43.3592 42.632 43.0736 42.9515 42.789C42.9272 42.748 42.9037 42.708 42.8793 42.6671C41.6387 42.6671 40.3981 42.6671 39.1575 42.6671C37.9213 42.6671 36.685 42.6671 35.4244 42.6671C35.4244 42.0124 35.4244 41.3804 35.4244 40.7144C37.9117 40.7144 40.3903 40.7144 42.8688 40.7144C42.881 40.6856 42.8906 40.6578 42.901 40.6299Z" fill="#390297"/>
<path d="M25.0451 33.2156C24.3016 32.4721 23.5303 31.7008 22.7781 30.9486C23.2116 30.5168 23.6609 30.0684 24.131 29.6001C24.4087 29.8865 24.7151 30.2034 25.0303 30.529C26.021 29.5269 26.9787 28.5588 27.9119 27.6143C28.4064 28.1105 28.8539 28.5606 29.2761 28.9846C27.8936 30.3671 26.4702 31.7913 25.0451 33.2156Z" fill="#390297"/>
</g>
</svg>
