<svg width="36" height="36" viewBox="0 0 36 36" fill="none" xmlns="http://www.w3.org/2000/svg">
<path d="M19.5148 4.37998L28.3648 8.30998C30.9148 9.43498 30.9148 11.295 28.3648 12.42L19.5148 16.35C18.5098 16.8 16.8598 16.8 15.8548 16.35L7.00479 12.42C4.45479 11.295 4.45479 9.43498 7.00479 8.30998L15.8548 4.37998C16.8598 3.92998 18.5098 3.92998 19.5148 4.37998Z" stroke="#3751FF" stroke-width="2" stroke-linecap="round" stroke-linejoin="round"/>
<path d="M4.5 16.5C4.5 17.76 5.445 19.215 6.6 19.725L16.785 24.255C17.565 24.6 18.45 24.6 19.215 24.255L29.4 19.725C30.555 19.215 31.5 17.76 31.5 16.5" stroke="#3751FF" stroke-width="2" stroke-linecap="round" stroke-linejoin="round"/>
<path d="M4.5 24C4.5 25.395 5.325 26.655 6.6 27.225L16.785 31.755C17.565 32.1 18.45 32.1 19.215 31.755L29.4 27.225C30.675 26.655 31.5 25.395 31.5 24" stroke="#3751FF" stroke-width="2" stroke-linecap="round" stroke-linejoin="round"/>
</svg>
