<svg width="60" height="60" viewBox="0 0 60 60" fill="none" xmlns="http://www.w3.org/2000/svg">
<circle opacity="0.7" cx="30" cy="30" r="30" fill="#0A0219"/>
<path d="M35.6501 18.6835L38 23.3835C38.3167 24.0335 39.1667 24.6501 39.8834 24.7835L44.1334 25.4835C46.8501 25.9335 47.4834 27.9001 45.5334 29.8668L42.2167 33.1835C41.6667 33.7335 41.3501 34.8168 41.5334 35.6002L42.4834 39.7002C43.2334 42.9335 41.5 44.2002 38.65 42.5002L34.6667 40.1335C33.95 39.7002 32.75 39.7002 32.0334 40.1335L28.05 42.5002C25.2 44.1835 23.4667 42.9335 24.2167 39.7002L25.1667 35.6002C25.35 34.8335 25.0334 33.7502 24.4834 33.1835L21.1667 29.8668C19.2167 27.9168 19.8501 25.9501 22.5667 25.4835L26.8167 24.7835C27.5334 24.6668 28.3834 24.0335 28.7 23.3835L31.05 18.6835C32.3 16.1335 34.3667 16.1335 35.6501 18.6835Z" stroke="#53D258" stroke-width="2" stroke-linecap="round" stroke-linejoin="round"/>
<path d="M23.3334 18.3335H13.3334" stroke="#53D258" stroke-width="2" stroke-linecap="round" stroke-linejoin="round"/>
<path d="M18.3334 41.6665H13.3334" stroke="#53D258" stroke-width="2" stroke-linecap="round" stroke-linejoin="round"/>
<path d="M15 30H13.3334" stroke="#53D258" stroke-width="2" stroke-linecap="round" stroke-linejoin="round"/>
</svg>
