<svg width="36" height="36" viewBox="0 0 36 36" fill="none" xmlns="http://www.w3.org/2000/svg">
<path d="M28.5 13.5C28.5 15.675 27.855 17.67 26.745 19.335C25.125 21.735 22.56 23.43 19.575 23.865C19.065 23.955 18.54 24 18 24C17.46 24 16.935 23.955 16.425 23.865C13.44 23.43 10.875 21.735 9.255 19.335C8.145 17.67 7.5 15.675 7.5 13.5C7.5 7.695 12.195 3 18 3C23.805 3 28.5 7.695 28.5 13.5Z" stroke="#3751FF" stroke-width="2" stroke-linecap="round" stroke-linejoin="round"/>
<path d="M31.8751 27.705L29.4001 28.29C28.8451 28.425 28.4101 28.845 28.2901 29.4L27.7651 31.605C27.4801 32.805 25.9501 33.165 25.1551 32.22L18.0001 24L10.8451 32.235C10.0501 33.18 8.52012 32.82 8.23512 31.62L7.71012 29.415C7.57512 28.86 7.14012 28.425 6.60012 28.305L4.12512 27.72C2.98512 27.45 2.58012 26.025 3.40512 25.2L9.25512 19.35C10.8751 21.75 13.4401 23.445 16.4251 23.88C16.9351 23.97 17.4601 24.015 18.0001 24.015C18.5401 24.015 19.0651 23.97 19.5751 23.88C22.5601 23.445 25.1251 21.75 26.7451 19.35L32.5951 25.2C33.4201 26.01 33.0151 27.435 31.8751 27.705Z" stroke="#3751FF" stroke-width="2" stroke-linecap="round" stroke-linejoin="round"/>
<path d="M18.87 8.97L19.755 10.74C19.875 10.98 20.19 11.22 20.475 11.265L22.08 11.535C23.1 11.7 23.34 12.45 22.605 13.185L21.36 14.43C21.15 14.64 21.03 15.045 21.105 15.345L21.465 16.89C21.75 18.105 21.105 18.585 20.025 17.94L18.525 17.055C18.255 16.89 17.805 16.89 17.535 17.055L16.035 17.94C14.955 18.57 14.31 18.105 14.595 16.89L14.955 15.345C15.015 15.06 14.91 14.64 14.7 14.43L13.455 13.185C12.72 12.45 12.96 11.715 13.98 11.535L15.585 11.265C15.855 11.22 16.17 10.98 16.29 10.74L17.175 8.97C17.61 8.01 18.39 8.01 18.87 8.97Z" stroke="#3751FF" stroke-width="2" stroke-linecap="round" stroke-linejoin="round"/>
</svg>
