<svg width="60" height="60" viewBox="0 0 60 60" fill="none" xmlns="http://www.w3.org/2000/svg">
<circle opacity="0.7" cx="30" cy="30" r="30" fill="#0A0219"/>
<path d="M30 23.1499L28.2166 26.2499C27.8166 26.9332 28.15 27.4999 28.9333 27.4999H31.05C31.85 27.4999 32.1666 28.0666 31.7666 28.7499L30 31.8499" stroke="#FEC400" stroke-width="2" stroke-linecap="round" stroke-linejoin="round"/>
<path d="M23.8333 40.0668V38.1335C20 35.8168 16.85 31.3001 16.85 26.5001C16.85 18.2501 24.4333 11.7835 33 13.6501C36.7666 14.4835 40.0666 16.9835 41.7833 20.4335C45.2666 27.4335 41.6 34.8668 36.2166 38.1168V40.0501C36.2166 40.5335 36.4 41.6501 34.6166 41.6501H25.4333C23.6 41.6668 23.8333 40.9501 23.8333 40.0668Z" stroke="#FEC400" stroke-width="2" stroke-linecap="round" stroke-linejoin="round"/>
<path d="M24.1666 46.6665C27.9833 45.5832 32.0166 45.5832 35.8333 46.6665" stroke="#FEC400" stroke-width="2" stroke-linecap="round" stroke-linejoin="round"/>
</svg>
