<svg width="36" height="36" viewBox="0 0 36 36" fill="none" xmlns="http://www.w3.org/2000/svg">
<path d="M16.125 33.7499H19.905C21.345 33.7499 22.275 32.7299 22.005 31.4849L21.39 28.77H14.64L14.025 31.4849C13.755 32.6549 14.775 33.7499 16.125 33.7499Z" stroke="white" stroke-width="2" stroke-linecap="round" stroke-linejoin="round"/>
<path d="M21.39 28.755L23.985 26.445C25.44 25.155 25.5 24.2549 24.345 22.7999L19.77 16.995C18.81 15.78 17.235 15.78 16.275 16.995L11.7 22.7999C10.545 24.2549 10.545 25.2 12.06 26.445L14.655 28.755" stroke="white" stroke-width="2" stroke-linecap="round" stroke-linejoin="round"/>
<path d="M18.015 16.6799V20.475" stroke="white" stroke-width="2" stroke-linecap="round" stroke-linejoin="round"/>
<path d="M18.78 7.5H17.28C16.455 7.5 15.78 6.825 15.78 6V4.5C15.78 3.675 16.455 3 17.28 3H18.78C19.605 3 20.28 3.675 20.28 4.5V6C20.28 6.825 19.605 7.5 18.78 7.5Z" stroke="white" stroke-width="2" stroke-linecap="round" stroke-linejoin="round"/>
<path d="M4.90503 21.2551H6.40503C7.23003 21.2551 7.90503 20.5801 7.90503 19.7551V18.2551C7.90503 17.4301 7.23003 16.755 6.40503 16.755H4.90503C4.08003 16.755 3.40503 17.4301 3.40503 18.2551V19.7551C3.40503 20.5801 4.08003 21.2551 4.90503 21.2551Z" stroke="white" stroke-width="2" stroke-linecap="round" stroke-linejoin="round"/>
<path d="M31.095 21.2551H29.595C28.77 21.2551 28.095 20.5801 28.095 19.7551V18.2551C28.095 17.4301 28.77 16.755 29.595 16.755H31.095C31.92 16.755 32.595 17.4301 32.595 18.2551V19.7551C32.595 20.5801 31.92 21.2551 31.095 21.2551Z" stroke="white" stroke-width="2" stroke-linecap="round" stroke-linejoin="round"/>
<path d="M15.78 5.33997C10.065 6.01497 5.625 10.8599 5.625 16.7549" stroke="white" stroke-width="1.5" stroke-linecap="round" stroke-linejoin="round"/>
<path d="M30.375 16.7549C30.375 10.8749 25.965 6.04497 20.28 5.33997" stroke="white" stroke-width="1.5" stroke-linecap="round" stroke-linejoin="round"/>
</svg>
