<svg width="36" height="36" viewBox="0 0 36 36" fill="none" xmlns="http://www.w3.org/2000/svg">
<path d="M16.125 33.75H19.905C21.345 33.75 22.275 32.73 22.005 31.485L21.39 28.7701H14.64L14.025 31.485C13.755 32.655 14.775 33.75 16.125 33.75Z" stroke="#3751FF" stroke-width="2" stroke-linecap="round" stroke-linejoin="round"/>
<path d="M21.3898 28.7551L23.9848 26.445C25.4398 25.155 25.4998 24.255 24.3448 22.8L19.7698 16.9951C18.8098 15.7801 17.2348 15.7801 16.2748 16.9951L11.6998 22.8C10.5448 24.255 10.5448 25.2 12.0598 26.445L14.6548 28.7551" stroke="#3751FF" stroke-width="2" stroke-linecap="round" stroke-linejoin="round"/>
<path d="M18.0146 16.68V20.475" stroke="#3751FF" stroke-width="2" stroke-linecap="round" stroke-linejoin="round"/>
<path d="M18.7798 7.5H17.2798C16.4548 7.5 15.7798 6.825 15.7798 6V4.5C15.7798 3.675 16.4548 3 17.2798 3H18.7798C19.6048 3 20.2798 3.675 20.2798 4.5V6C20.2798 6.825 19.6048 7.5 18.7798 7.5Z" stroke="#3751FF" stroke-width="2" stroke-linecap="round" stroke-linejoin="round"/>
<path d="M4.90479 21.2551H6.40479C7.22979 21.2551 7.90479 20.5801 7.90479 19.7551V18.2551C7.90479 17.4301 7.22979 16.755 6.40479 16.755H4.90479C4.07979 16.755 3.40479 17.4301 3.40479 18.2551V19.7551C3.40479 20.5801 4.07979 21.2551 4.90479 21.2551Z" stroke="#3751FF" stroke-width="2" stroke-linecap="round" stroke-linejoin="round"/>
<path d="M31.0947 21.2551H29.5947C28.7697 21.2551 28.0947 20.5801 28.0947 19.7551V18.2551C28.0947 17.4301 28.7697 16.755 29.5947 16.755H31.0947C31.9197 16.755 32.5947 17.4301 32.5947 18.2551V19.7551C32.5947 20.5801 31.9197 21.2551 31.0947 21.2551Z" stroke="#3751FF" stroke-width="2" stroke-linecap="round" stroke-linejoin="round"/>
<path d="M15.78 5.33997C10.065 6.01497 5.625 10.8599 5.625 16.7549" stroke="#3751FF" stroke-width="1.5" stroke-linecap="round" stroke-linejoin="round"/>
<path d="M30.3748 16.7549C30.3748 10.8749 25.9648 6.04497 20.2798 5.33997" stroke="#3751FF" stroke-width="1.5" stroke-linecap="round" stroke-linejoin="round"/>
</svg>
