<svg width="30" height="30" viewBox="0 0 30 30" fill="none" xmlns="http://www.w3.org/2000/svg">
<circle opacity="0.1" cx="15" cy="15" r="15" fill="#3751FF"/>
<path fill-rule="evenodd" clip-rule="evenodd" d="M11.002 12.8994V21.0002H8.16309V12.8994H11.002ZM11.1831 10.3978C11.1917 11.1744 10.5723 11.7956 9.58293 11.7956H9.56573C8.61081 11.7956 8 11.1744 8 10.3978C8 9.6049 8.63661 9 9.60014 9C10.5723 9 11.1745 9.6049 11.1831 10.3978ZM15.3987 14.0504C15.7722 13.4956 16.4459 12.7109 17.9538 12.7109C19.8206 12.7109 21.2143 13.8717 21.2143 16.3567V20.9998H18.3839V16.6673C18.3839 15.5801 17.971 14.8363 16.9472 14.8363C16.1644 14.8363 15.6998 15.3349 15.4933 15.8172C15.4245 15.997 15.3987 16.2341 15.3987 16.4793V20.9998H12.5684C12.6028 13.6592 12.5684 12.8989 12.5684 12.8989H15.3987V14.0504Z" fill="#3751FF"/>
</svg>
