<svg width="32" height="32" viewBox="0 0 32 32" fill="none" xmlns="http://www.w3.org/2000/svg">
<circle opacity="0.7" cx="16" cy="16" r="16" fill="#0A0219"/>
<path fill-rule="evenodd" clip-rule="evenodd" d="M20.1162 8.5C21.2337 8.5 22.3087 8.94167 23.0995 9.73417C23.8912 10.525 24.3337 11.5917 24.3337 12.7083V19.2917C24.3337 21.6167 22.442 23.5 20.1162 23.5H11.8837C9.55783 23.5 7.66699 21.6167 7.66699 19.2917V12.7083C7.66699 10.3833 9.54949 8.5 11.8837 8.5H20.1162ZM21.4419 13.9496L21.5086 13.883C21.7078 13.6413 21.7078 13.2913 21.4994 13.0496C21.3836 12.9255 21.2244 12.8496 21.0586 12.833C20.8836 12.8238 20.7169 12.883 20.5911 12.9996L16.8336 15.9996C16.3503 16.4005 15.6578 16.4005 15.1669 15.9996L11.4169 12.9996C11.1578 12.808 10.7994 12.833 10.5836 13.058C10.3586 13.283 10.3336 13.6413 10.5244 13.8913L10.6336 13.9996L14.4253 16.958C14.8919 17.3246 15.4578 17.5246 16.0503 17.5246C16.6411 17.5246 17.2169 17.3246 17.6828 16.958L21.4419 13.9496Z" fill="#FEC400"/>
</svg>
