<svg width="32" height="32" viewBox="0 0 32 32" fill="none" xmlns="http://www.w3.org/2000/svg">
<circle opacity="0.7" cx="16" cy="16" r="16" fill="#0A0219"/>
<path fill-rule="evenodd" clip-rule="evenodd" d="M16.0243 7.66701C17.9077 7.67534 19.7077 8.42534 21.0243 9.74201C22.3493 11.067 23.091 12.8587 23.0827 14.717V14.7587C23.0327 17.2837 21.616 19.6087 19.8493 21.4253C18.8493 22.4503 17.741 23.3587 16.5327 24.1253C16.2077 24.4003 15.7327 24.4003 15.4077 24.1253C13.616 22.9587 12.0327 21.492 10.7493 19.7837C9.62435 18.3003 8.98268 16.517 8.91602 14.6587C8.93268 10.7837 12.116 7.65868 16.0243 7.66701ZM16.0249 17.05C16.6165 17.05 17.1832 16.825 17.5999 16.4167C18.0332 15.9917 18.2757 15.4259 18.2757 14.8334C18.2757 13.6 17.2665 12.6084 16.0249 12.6084C14.7832 12.6084 13.7832 13.6 13.7832 14.8334C13.7832 16.0509 14.7665 17.0334 15.9999 17.05H16.0249Z" fill="#53D258"/>
</svg>
