<svg width="60" height="60" viewBox="0 0 60 60" fill="none" xmlns="http://www.w3.org/2000/svg">
<circle opacity="0.7" cx="30" cy="30" r="30" fill="#0A0219"/>
<path d="M24.45 33.3335H16.6667C14.8334 33.3335 13.3334 34.8335 13.3334 36.6668V46.6668H24.45V33.3335Z" stroke="#FF6456" stroke-width="2" stroke-miterlimit="10" stroke-linecap="round" stroke-linejoin="round"/>
<path d="M32.2167 26.6665H27.7667C25.9333 26.6665 24.4333 28.1665 24.4333 29.9998V46.6665H35.55V29.9998C35.55 28.1665 34.0667 26.6665 32.2167 26.6665Z" stroke="#FF6456" stroke-width="2" stroke-miterlimit="10" stroke-linecap="round" stroke-linejoin="round"/>
<path d="M43.3334 38.3335H35.55V46.6668H46.6667V41.6668C46.6667 39.8335 45.1667 38.3335 43.3334 38.3335Z" stroke="#FF6456" stroke-width="2" stroke-miterlimit="10" stroke-linecap="round" stroke-linejoin="round"/>
<path d="M30.8667 13.4502L31.75 15.2169C31.8667 15.4669 32.1834 15.7002 32.45 15.7335L34.05 16.0002C35.0667 16.1669 35.3167 16.9168 34.5833 17.6335L33.3333 18.8835C33.1167 19.1002 33 19.5002 33.0667 19.7835L33.4167 21.3169C33.7 22.5335 33.05 23.0002 31.9833 22.3669L30.4834 21.4835C30.2167 21.3169 29.7667 21.3169 29.5 21.4835L28 22.3669C26.9333 23.0002 26.2833 22.5335 26.5667 21.3169L26.9167 19.7835C26.9834 19.5002 26.8667 19.0835 26.65 18.8835L25.4167 17.6502C24.6833 16.9168 24.9167 16.1835 25.95 16.0168L27.55 15.7502C27.8167 15.7002 28.1334 15.4669 28.25 15.2335L29.1333 13.4668C29.6167 12.5002 30.3834 12.5002 30.8667 13.4502Z" stroke="#FF6456" stroke-width="2" stroke-linecap="round" stroke-linejoin="round"/>
</svg>
