<svg width="32" height="32" viewBox="0 0 32 32" fill="none" xmlns="http://www.w3.org/2000/svg">
<circle opacity="0.7" cx="16" cy="16" r="16" fill="#FFCFCB"/>
<path d="M20.83 21.4415C20.5902 21.8083 20.1737 22.0233 19.732 21.998C19.2903 21.9727 18.7225 21.9095 18.3312 21.8083C16.5897 21.353 14.785 20.2653 13.258 18.735C11.731 17.2048 10.6457 15.3962 10.1914 13.6509C10.0905 13.2589 10.04 12.7024 10.0021 12.2598C9.97687 11.8298 10.1788 11.4124 10.5448 11.1721L12.097 10.135C12.5009 9.86946 13.0435 10.0086 13.258 10.4386L14.52 12.8795C14.6967 13.2209 14.6084 13.6509 14.3055 13.8912L13.1697 14.7765C13.624 15.6239 14.0531 16.3068 14.886 17.1289C15.6558 17.9003 16.3247 18.3556 17.1954 18.8236L18.0915 17.6727C18.3312 17.3692 18.7603 17.268 19.1011 17.4577L21.5493 18.7224C21.9784 18.9374 22.1172 19.4812 21.8522 19.8859L20.83 21.4415Z" fill="#FF6456"/>
</svg>
