<svg width="30" height="30" viewBox="0 0 30 30" fill="none" xmlns="http://www.w3.org/2000/svg">
<circle opacity="0.1" cx="15" cy="15" r="15" fill="#3751FF"/>
<path fill-rule="evenodd" clip-rule="evenodd" d="M22.4153 10.425C22.0129 11.025 21.5098 11.5594 20.9336 11.9906C20.9427 12.1219 20.9427 12.2531 20.9427 12.3844C20.9427 16.3875 17.97 21 12.5368 21C10.8629 21 9.30799 20.5031 8 19.6406C8.23782 19.6687 8.46649 19.6781 8.71345 19.6781C10.0946 19.6781 11.366 19.2 12.3813 18.3844C11.0825 18.3562 9.994 17.4844 9.61898 16.2844C9.80192 16.3125 9.98485 16.3312 10.1769 16.3312C10.4422 16.3312 10.7074 16.2937 10.9544 16.2281C9.60069 15.9469 8.58539 14.7281 8.58539 13.2563V13.2188C8.97871 13.4437 9.43605 13.5844 9.92082 13.6031C9.12505 13.0594 8.60369 12.1313 8.60369 11.0813C8.60369 10.5188 8.75004 10.0031 9.00615 9.55313C10.4605 11.3906 12.6466 12.5906 15.0979 12.7219C15.0522 12.4969 15.0247 12.2625 15.0247 12.0281C15.0247 10.3594 16.3419 9 17.9791 9C18.8298 9 19.5981 9.36562 20.1378 9.95625C20.8055 9.825 21.4458 9.57188 22.0129 9.225C21.7934 9.92813 21.3269 10.5188 20.714 10.8938C21.3086 10.8281 21.8848 10.6594 22.4153 10.425Z" fill="#3751FF"/>
</svg>
