<svg width="121" height="111" viewBox="0 0 121 111" fill="none" xmlns="http://www.w3.org/2000/svg">
<ellipse cx="36.4857" cy="3.84336" rx="2.5" ry="2.62469" transform="rotate(30 36.4857 3.84336)" fill="#FF6E6F"/>
<ellipse cx="14.5934" cy="41.7618" rx="2.5" ry="2.62469" transform="rotate(30 14.5934 41.7618)" fill="#FF6E6F"/>
<ellipse cx="68.8664" cy="22.5384" rx="2.5" ry="2.62469" transform="rotate(30 68.8664 22.5384)" fill="#FF6E6F"/>
<ellipse cx="46.9742" cy="60.4568" rx="2.5" ry="2.62469" transform="rotate(30 46.9742 60.4568)" fill="#FF6E6F"/>
<ellipse cx="101.247" cy="41.2334" rx="2.5" ry="2.62469" transform="rotate(30 101.247 41.2334)" fill="#FF6E6F"/>
<ellipse cx="79.3549" cy="79.1518" rx="2.5" ry="2.62469" transform="rotate(30 79.3549 79.1518)" fill="#FF6E6F"/>
<ellipse cx="25.5396" cy="22.8025" rx="2.5" ry="2.62469" transform="rotate(30 25.5396 22.8025)" fill="#FF6E6F"/>
<ellipse cx="3.64752" cy="60.7207" rx="2.5" ry="2.62469" transform="rotate(30 3.64752 60.7207)" fill="#FF6E6F"/>
<ellipse cx="57.9203" cy="41.4975" rx="2.5" ry="2.62469" transform="rotate(30 57.9203 41.4975)" fill="#FF6E6F"/>
<ellipse cx="36.0283" cy="79.4157" rx="2.5" ry="2.62469" transform="rotate(30 36.0283 79.4157)" fill="#FF6E6F"/>
<ellipse cx="90.3011" cy="60.1925" rx="2.5" ry="2.62469" transform="rotate(30 90.3011 60.1925)" fill="#FF6E6F"/>
<ellipse cx="68.409" cy="98.1107" rx="2.5" ry="2.62469" transform="rotate(30 68.409 98.1107)" fill="#FF6E6F"/>
<ellipse cx="52.676" cy="13.1909" rx="2.5" ry="2.62469" transform="rotate(30 52.676 13.1909)" fill="#FF6E6F"/>
<ellipse cx="30.7837" cy="51.1093" rx="2.5" ry="2.62469" transform="rotate(30 30.7837 51.1093)" fill="#FF6E6F"/>
<ellipse cx="85.0567" cy="31.8859" rx="2.5" ry="2.62469" transform="rotate(30 85.0567 31.8859)" fill="#FF6E6F"/>
<ellipse cx="63.1645" cy="69.8043" rx="2.5" ry="2.62469" transform="rotate(30 63.1645 69.8043)" fill="#FF6E6F"/>
<ellipse cx="117.437" cy="50.5809" rx="2.5" ry="2.62469" transform="rotate(30 117.437 50.5809)" fill="#FF6E6F"/>
<ellipse cx="95.5452" cy="88.4993" rx="2.5" ry="2.62469" transform="rotate(30 95.5452 88.4993)" fill="#FF6E6F"/>
<ellipse cx="41.7299" cy="32.15" rx="2.5" ry="2.62469" transform="rotate(30 41.7299 32.15)" fill="#FF6E6F"/>
<ellipse cx="19.8378" cy="70.0682" rx="2.5" ry="2.62469" transform="rotate(30 19.8378 70.0682)" fill="#FF6E6F"/>
<ellipse cx="74.1106" cy="50.845" rx="2.5" ry="2.62469" transform="rotate(30 74.1106 50.845)" fill="#FF6E6F"/>
<ellipse cx="52.2186" cy="88.7632" rx="2.5" ry="2.62469" transform="rotate(30 52.2186 88.7632)" fill="#FF6E6F"/>
<ellipse cx="106.491" cy="69.54" rx="2.5" ry="2.62469" transform="rotate(30 106.491 69.54)" fill="#FF6E6F"/>
<ellipse cx="84.5993" cy="107.458" rx="2.5" ry="2.62469" transform="rotate(30 84.5993 107.458)" fill="#FF6E6F"/>
</svg>
