<svg width="155" height="155" viewBox="0 0 155 155" fill="none" xmlns="http://www.w3.org/2000/svg">
<path d="M92.8455 106.522C108.753 98.1686 114.878 78.5012 106.525 62.5934C98.1721 46.6853 78.5047 40.5607 62.5968 48.9136C46.6887 57.2666 40.5641 76.9343 48.9171 92.842C57.2699 108.75 76.9371 114.875 92.8455 106.522Z" stroke="#53D258" stroke-width="1.46919" stroke-miterlimit="10"/>
<path d="M111.297 105.808C126.81 87.2628 124.352 59.6539 105.807 44.1411C87.2622 28.6284 59.6533 31.0863 44.1405 49.6311C28.6278 68.1758 31.0857 95.7849 49.6305 111.297C68.1751 126.811 95.7842 124.353 111.297 105.808Z" stroke="#53D258" stroke-width="1.46919" stroke-miterlimit="10"/>
<path d="M95.4582 111.497C76.8303 121.278 53.7185 114.082 43.9374 95.4536C34.1563 76.8257 41.3537 53.7134 59.9816 43.9323C78.6095 34.1512 101.721 41.3485 111.503 59.9765C121.284 78.6041 114.083 101.718 95.4582 111.497Z" stroke="#53D258" stroke-width="1.46919" stroke-miterlimit="10"/>
<path d="M92.8455 106.522C108.753 98.1686 114.878 78.5012 106.525 62.5934C98.1721 46.6853 78.5047 40.5607 62.5968 48.9136C46.6887 57.2666 40.5641 76.9343 48.9171 92.842C57.2699 108.75 76.9371 114.875 92.8455 106.522Z" stroke="#53D258" stroke-width="1.46919" stroke-miterlimit="10"/>
<path d="M90.0413 101.18C102.999 94.3766 107.987 78.3573 101.184 65.3995C94.3798 52.4419 78.3604 47.4533 65.4028 54.257C52.4452 61.0606 47.4566 77.0805 54.2603 90.0374C61.0639 102.995 77.0837 107.984 90.0413 101.18Z" stroke="#53D258" stroke-width="1.46919" stroke-miterlimit="10"/>
<path d="M87.4712 96.2865C97.7262 90.9019 101.674 78.2243 96.29 67.9691C90.9054 57.7144 78.227 53.7663 67.9722 59.1508C57.7174 64.5353 53.7693 77.2135 59.1539 87.4684C64.5384 97.7227 77.2162 101.671 87.4712 96.2865Z" stroke="#53D258" stroke-width="1.46919" stroke-miterlimit="10"/>
<path d="M109.947 56.3532C115.493 53.4411 117.628 46.5846 114.716 41.0386C111.804 35.4927 104.948 33.3574 99.4014 36.2695C93.8559 39.1815 91.7205 46.0381 94.6324 51.5841C97.5443 57.1301 104.401 59.2652 109.947 56.3532Z" fill="#3751FF"/>
</svg>
