<svg width="155" height="155" viewBox="0 0 155 155" fill="none" xmlns="http://www.w3.org/2000/svg">
<path d="M92.8458 106.522C108.753 98.1686 114.879 78.5012 106.525 62.5934C98.1723 46.6853 78.505 40.5607 62.597 48.9136C46.689 57.2666 40.5643 76.9343 48.9173 92.842C57.2702 108.75 76.9373 114.875 92.8458 106.522Z" stroke="#53D258" stroke-width="1.46919" stroke-miterlimit="10"/>
<path d="M111.297 105.808C126.81 87.2629 124.352 59.654 105.807 44.1413C87.2621 28.6285 59.6532 31.0864 44.1404 49.6312C28.6277 68.1759 31.0856 95.785 49.6303 111.297C68.175 126.811 95.7841 124.353 111.297 105.808Z" stroke="#53D258" stroke-width="1.46919" stroke-miterlimit="10"/>
<path d="M95.458 111.497C76.83 121.278 53.7182 114.082 43.9371 95.4536C34.156 76.8257 41.3534 53.7134 59.9813 43.9323C78.6092 34.1512 101.721 41.3485 111.502 59.9765C121.283 78.6041 114.083 101.718 95.458 111.497Z" stroke="#53D258" stroke-width="1.46919" stroke-miterlimit="10"/>
<path d="M92.8458 106.522C108.753 98.1686 114.879 78.5012 106.525 62.5934C98.1723 46.6853 78.505 40.5607 62.597 48.9136C46.689 57.2666 40.5643 76.9343 48.9173 92.842C57.2702 108.75 76.9373 114.875 92.8458 106.522Z" stroke="#53D258" stroke-width="1.46919" stroke-miterlimit="10"/>
<path d="M90.041 101.18C102.999 94.3765 107.987 78.3572 101.183 65.3994C94.3795 52.4418 78.3602 47.4532 65.4025 54.2569C52.445 61.0605 47.4563 77.0804 54.26 90.0373C61.0637 102.995 77.0835 107.983 90.041 101.18Z" stroke="#53D258" stroke-width="1.46919" stroke-miterlimit="10"/>
<path d="M87.4714 96.2867C97.7264 90.9021 101.674 78.2244 96.2903 67.9693C90.9057 57.7145 78.2273 53.7664 67.9724 59.1509C57.7177 64.5355 53.7696 77.2136 59.1541 87.4686C64.5386 97.7228 77.2165 101.671 87.4714 96.2867Z" stroke="#53D258" stroke-width="1.46919" stroke-miterlimit="10"/>
<path d="M109.947 56.3532C115.493 53.4411 117.628 46.5846 114.716 41.0386C111.804 35.4927 104.947 33.3574 99.4013 36.2695C93.8558 39.1815 91.7203 46.0381 94.6323 51.5841C97.5442 57.1301 104.401 59.2652 109.947 56.3532Z" fill="#3751FF"/>
</svg>
