<svg width="115" height="83" viewBox="0 0 115 83" fill="none" xmlns="http://www.w3.org/2000/svg">
<ellipse cx="3.12804" cy="3.06576" rx="2.90221" ry="3.04696" fill="#5F74FF"/>
<ellipse cx="3.12804" cy="53.8944" rx="2.90221" ry="3.04696" fill="#5F74FF"/>
<ellipse cx="46.5338" cy="3.06576" rx="2.90221" ry="3.04696" fill="#5F74FF"/>
<ellipse cx="46.5338" cy="53.8944" rx="2.90221" ry="3.04696" fill="#5F74FF"/>
<ellipse cx="89.9391" cy="3.06576" rx="2.90221" ry="3.04696" fill="#5F74FF"/>
<ellipse cx="89.9391" cy="53.8944" rx="2.90221" ry="3.04696" fill="#5F74FF"/>
<ellipse cx="3.12804" cy="28.4798" rx="2.90221" ry="3.04696" fill="#5F74FF"/>
<ellipse cx="3.12804" cy="79.3082" rx="2.90221" ry="3.04696" fill="#5F74FF"/>
<ellipse cx="46.5338" cy="28.4798" rx="2.90221" ry="3.04696" fill="#5F74FF"/>
<ellipse cx="46.5338" cy="79.3082" rx="2.90221" ry="3.04696" fill="#5F74FF"/>
<ellipse cx="89.9391" cy="28.4798" rx="2.90221" ry="3.04696" fill="#5F74FF"/>
<ellipse cx="89.9391" cy="79.3082" rx="2.90221" ry="3.04696" fill="#5F74FF"/>
<ellipse cx="24.8309" cy="3.06576" rx="2.90221" ry="3.04696" fill="#5F74FF"/>
<ellipse cx="24.8309" cy="53.8944" rx="2.90221" ry="3.04696" fill="#5F74FF"/>
<ellipse cx="68.2362" cy="3.06576" rx="2.90221" ry="3.04696" fill="#5F74FF"/>
<ellipse cx="68.2362" cy="53.8944" rx="2.90221" ry="3.04696" fill="#5F74FF"/>
<ellipse cx="111.642" cy="3.06576" rx="2.90221" ry="3.04696" fill="#5F74FF"/>
<ellipse cx="111.642" cy="53.8944" rx="2.90221" ry="3.04696" fill="#5F74FF"/>
<ellipse cx="24.8309" cy="28.4798" rx="2.90221" ry="3.04696" fill="#5F74FF"/>
<ellipse cx="24.8309" cy="79.3082" rx="2.90221" ry="3.04696" fill="#5F74FF"/>
<ellipse cx="68.2362" cy="28.4798" rx="2.90221" ry="3.04696" fill="#5F74FF"/>
<ellipse cx="68.2362" cy="79.3082" rx="2.90221" ry="3.04696" fill="#5F74FF"/>
<ellipse cx="111.642" cy="28.4798" rx="2.90221" ry="3.04696" fill="#5F74FF"/>
<ellipse cx="111.642" cy="79.3082" rx="2.90221" ry="3.04696" fill="#5F74FF"/>
</svg>
