<svg width="121" height="111" viewBox="0 0 121 111" fill="none" xmlns="http://www.w3.org/2000/svg">
<ellipse cx="36.4855" cy="3.84336" rx="2.5" ry="2.62469" transform="rotate(30 36.4855 3.84336)" fill="#FF6433"/>
<ellipse cx="14.5934" cy="41.7618" rx="2.5" ry="2.62469" transform="rotate(30 14.5934 41.7618)" fill="#FF6433"/>
<ellipse cx="68.8664" cy="22.5384" rx="2.5" ry="2.62469" transform="rotate(30 68.8664 22.5384)" fill="#FF6433"/>
<ellipse cx="46.9738" cy="60.4568" rx="2.5" ry="2.62469" transform="rotate(30 46.9738 60.4568)" fill="#FF6433"/>
<ellipse cx="101.247" cy="41.2334" rx="2.5" ry="2.62469" transform="rotate(30 101.247 41.2334)" fill="#FF6433"/>
<ellipse cx="79.3547" cy="79.1518" rx="2.5" ry="2.62469" transform="rotate(30 79.3547 79.1518)" fill="#FF6433"/>
<ellipse cx="25.5397" cy="22.8025" rx="2.5" ry="2.62469" transform="rotate(30 25.5397 22.8025)" fill="#FF6433"/>
<ellipse cx="3.64764" cy="60.7207" rx="2.5" ry="2.62469" transform="rotate(30 3.64764 60.7207)" fill="#FF6433"/>
<ellipse cx="57.9201" cy="41.4975" rx="2.5" ry="2.62469" transform="rotate(30 57.9201 41.4975)" fill="#FF6433"/>
<ellipse cx="36.028" cy="79.4157" rx="2.5" ry="2.62469" transform="rotate(30 36.028 79.4157)" fill="#FF6433"/>
<ellipse cx="90.301" cy="60.1925" rx="2.5" ry="2.62469" transform="rotate(30 90.301 60.1925)" fill="#FF6433"/>
<ellipse cx="68.4089" cy="98.1107" rx="2.5" ry="2.62469" transform="rotate(30 68.4089 98.1107)" fill="#FF6433"/>
<ellipse cx="52.676" cy="13.1909" rx="2.5" ry="2.62469" transform="rotate(30 52.676 13.1909)" fill="#FF6433"/>
<ellipse cx="30.7839" cy="51.1093" rx="2.5" ry="2.62469" transform="rotate(30 30.7839 51.1093)" fill="#FF6433"/>
<ellipse cx="85.0568" cy="31.8859" rx="2.5" ry="2.62469" transform="rotate(30 85.0568 31.8859)" fill="#FF6433"/>
<ellipse cx="63.1642" cy="69.8043" rx="2.5" ry="2.62469" transform="rotate(30 63.1642 69.8043)" fill="#FF6433"/>
<ellipse cx="117.437" cy="50.5809" rx="2.5" ry="2.62469" transform="rotate(30 117.437 50.5809)" fill="#FF6433"/>
<ellipse cx="95.5451" cy="88.4993" rx="2.5" ry="2.62469" transform="rotate(30 95.5451 88.4993)" fill="#FF6433"/>
<ellipse cx="41.7297" cy="32.15" rx="2.5" ry="2.62469" transform="rotate(30 41.7297 32.15)" fill="#FF6433"/>
<ellipse cx="19.8376" cy="70.0682" rx="2.5" ry="2.62469" transform="rotate(30 19.8376 70.0682)" fill="#FF6433"/>
<ellipse cx="74.1105" cy="50.845" rx="2.5" ry="2.62469" transform="rotate(30 74.1105 50.845)" fill="#FF6433"/>
<ellipse cx="52.2184" cy="88.7632" rx="2.5" ry="2.62469" transform="rotate(30 52.2184 88.7632)" fill="#FF6433"/>
<ellipse cx="106.491" cy="69.54" rx="2.5" ry="2.62469" transform="rotate(30 106.491 69.54)" fill="#FF6433"/>
<ellipse cx="84.5993" cy="107.458" rx="2.5" ry="2.62469" transform="rotate(30 84.5993 107.458)" fill="#FF6433"/>
</svg>
