<svg width="115" height="84" viewBox="0 0 115 84" fill="none" xmlns="http://www.w3.org/2000/svg">
<ellipse cx="3.16124" cy="3.79525" rx="2.90221" ry="3.04696" fill="#FF8378"/>
<ellipse cx="3.16124" cy="54.6239" rx="2.90221" ry="3.04696" fill="#FF8378"/>
<ellipse cx="46.5668" cy="3.79525" rx="2.90221" ry="3.04696" fill="#FF8378"/>
<ellipse cx="46.5668" cy="54.6239" rx="2.90221" ry="3.04696" fill="#FF8378"/>
<ellipse cx="89.9723" cy="3.79525" rx="2.90221" ry="3.04696" fill="#FF8378"/>
<ellipse cx="89.9723" cy="54.6239" rx="2.90221" ry="3.04696" fill="#FF8378"/>
<ellipse cx="3.16124" cy="29.2096" rx="2.90221" ry="3.04696" fill="#FF8378"/>
<ellipse cx="3.16124" cy="80.0379" rx="2.90221" ry="3.04696" fill="#FF8378"/>
<ellipse cx="46.5668" cy="29.2096" rx="2.90221" ry="3.04696" fill="#FF8378"/>
<ellipse cx="46.5668" cy="80.0379" rx="2.90221" ry="3.04696" fill="#FF8378"/>
<ellipse cx="89.9723" cy="29.2096" rx="2.90221" ry="3.04696" fill="#FF8378"/>
<ellipse cx="89.9723" cy="80.0379" rx="2.90221" ry="3.04696" fill="#FF8378"/>
<ellipse cx="24.8641" cy="3.79525" rx="2.90221" ry="3.04696" fill="#FF8378"/>
<ellipse cx="24.8641" cy="54.6239" rx="2.90221" ry="3.04696" fill="#FF8378"/>
<ellipse cx="68.2694" cy="3.79525" rx="2.90221" ry="3.04696" fill="#FF8378"/>
<ellipse cx="68.2694" cy="54.6239" rx="2.90221" ry="3.04696" fill="#FF8378"/>
<ellipse cx="111.675" cy="3.79525" rx="2.90221" ry="3.04696" fill="#FF8378"/>
<ellipse cx="111.675" cy="54.6239" rx="2.90221" ry="3.04696" fill="#FF8378"/>
<ellipse cx="24.8641" cy="29.2096" rx="2.90221" ry="3.04696" fill="#FF8378"/>
<ellipse cx="24.8641" cy="80.0379" rx="2.90221" ry="3.04696" fill="#FF8378"/>
<ellipse cx="68.2694" cy="29.2096" rx="2.90221" ry="3.04696" fill="#FF8378"/>
<ellipse cx="68.2694" cy="80.0379" rx="2.90221" ry="3.04696" fill="#FF8378"/>
<ellipse cx="111.675" cy="29.2096" rx="2.90221" ry="3.04696" fill="#FF8378"/>
<ellipse cx="111.675" cy="80.0379" rx="2.90221" ry="3.04696" fill="#FF8378"/>
</svg>
