<svg width="24" height="130" viewBox="0 0 24 130" fill="none" xmlns="http://www.w3.org/2000/svg">
<g clip-path="url(#clip0_58_1552)">
<mask id="mask0_58_1552" style="mask-type:luminance" maskUnits="userSpaceOnUse" x="0" y="5" width="24" height="120">
<path d="M23.2431 5.00049H0V124.428H23.2431V5.00049Z" fill="white"/>
</mask>
<g mask="url(#mask0_58_1552)">
<path d="M21.314 8.85895C20.2525 8.85895 19.3848 7.99126 19.3848 6.92972C19.3848 5.86818 20.2525 5.00049 21.314 5.00049C22.3755 5.00049 23.2432 5.86818 23.2432 6.92972C23.2432 7.99126 22.3755 8.85895 21.314 8.85895Z" fill="#060000"/>
<path d="M21.314 25.4274C20.2525 25.4274 19.3848 24.5597 19.3848 23.4982C19.3848 22.4367 20.2525 21.569 21.314 21.569C22.3755 21.569 23.2432 22.4367 23.2432 23.4982C23.2432 24.5597 22.3755 25.4274 21.314 25.4274Z" fill="#060000"/>
<path d="M21.314 42.0067C20.2525 42.0067 19.3848 41.139 19.3848 40.0774C19.3848 39.0159 20.2525 38.1482 21.314 38.1482C22.3755 38.1482 23.2432 39.0159 23.2432 40.0774C23.2432 41.139 22.3755 42.0067 21.314 42.0067Z" fill="#060000"/>
<path d="M21.314 58.5843C20.2525 58.5843 19.3848 57.7166 19.3848 56.6551C19.3848 55.5935 20.2525 54.7258 21.314 54.7258C22.3755 54.7258 23.2432 55.5935 23.2432 56.6551C23.2432 57.7166 22.3755 58.5843 21.314 58.5843Z" fill="#060000"/>
<path d="M21.314 74.7021C20.2525 74.7021 19.3848 73.8344 19.3848 72.7729C19.3848 71.7113 20.2525 70.8436 21.314 70.8436C22.3755 70.8436 23.2432 71.7113 23.2432 72.7729C23.2432 73.8344 22.3755 74.7021 21.314 74.7021Z" fill="#060000"/>
<path d="M21.314 91.2814C20.2525 91.2814 19.3848 90.4137 19.3848 89.3522C19.3848 88.2907 20.2525 87.423 21.314 87.423C22.3755 87.423 23.2432 88.2907 23.2432 89.3522C23.2432 90.4137 22.3755 91.2814 21.314 91.2814Z" fill="#060000"/>
<path d="M21.314 107.858C20.2525 107.858 19.3848 106.991 19.3848 105.929C19.3848 104.868 20.2525 104 21.314 104C22.3755 104 23.2432 104.868 23.2432 105.929C23.2432 106.991 22.3755 107.858 21.314 107.858Z" fill="#060000"/>
<path d="M21.314 124.428C20.2525 124.428 19.3848 123.56 19.3848 122.498C19.3848 121.437 20.2525 120.569 21.314 120.569C22.3755 120.569 23.2432 121.437 23.2432 122.498C23.2432 123.569 22.3755 124.428 21.314 124.428Z" fill="#060000"/>
<path d="M1.92923 8.85895C0.867692 8.85895 0 7.99126 0 6.92972C0 5.86818 0.867692 5.00049 1.92923 5.00049C2.99077 5.00049 3.85846 5.86818 3.85846 6.92972C3.85846 7.99126 2.99077 8.85895 1.92923 8.85895Z" fill="#060000"/>
<path d="M1.92923 25.4289C0.867692 25.4289 0 24.5705 0 23.5089C0 22.4474 0.867692 21.5797 1.92923 21.5797C2.99077 21.5797 3.85846 22.4474 3.85846 23.5089C3.85846 24.5705 2.99077 25.4289 1.92923 25.4289Z" fill="#060000"/>
<path d="M1.92923 42.0067C0.867692 42.0067 0 41.139 0 40.0774C0 39.0159 0.867692 38.1482 1.92923 38.1482C2.99077 38.1482 3.85846 39.0159 3.85846 40.0774C3.85846 41.139 2.99077 42.0067 1.92923 42.0067Z" fill="#060000"/>
<path d="M1.92923 58.5843C0.867692 58.5843 0 57.7166 0 56.6551C0 55.5935 0.867692 54.7258 1.92923 54.7258C2.99077 54.7258 3.85846 55.5935 3.85846 56.6551C3.85846 57.7166 2.99077 58.5843 1.92923 58.5843Z" fill="#060000"/>
<path d="M1.92923 74.7021C0.867692 74.7021 0 73.8436 0 72.7729C0 71.7021 0.867692 70.8436 1.92923 70.8436C2.99077 70.8436 3.85846 71.7113 3.85846 72.7729C3.85846 73.8344 2.99077 74.7021 1.92923 74.7021Z" fill="#060000"/>
<path d="M1.92923 91.2814C0.867692 91.2814 0 90.4137 0 89.3522C0 88.2907 0.867692 87.423 1.92923 87.423C2.99077 87.423 3.85846 88.2907 3.85846 89.3522C3.85846 90.4137 2.99077 91.2814 1.92923 91.2814Z" fill="#060000"/>
<path d="M1.92923 107.858C0.867692 107.858 0 106.991 0 105.929C0 104.868 0.867692 104 1.92923 104C2.99077 104 3.85846 104.868 3.85846 105.929C3.85846 106.991 2.99077 107.858 1.92923 107.858Z" fill="#060000"/>
<path d="M1.92923 124.428C0.867692 124.428 0 123.56 0 122.498C0 121.437 0.867692 120.569 1.92923 120.569C2.99077 120.569 3.85846 121.437 3.85846 122.498C3.85846 123.569 2.99077 124.428 1.92923 124.428Z" fill="#060000"/>
</g>
</g>
<defs>
<clipPath id="clip0_58_1552">
<rect width="24" height="120" fill="white" transform="translate(0 5)"/>
</clipPath>
</defs>
</svg>
