<svg width="121" height="111" viewBox="0 0 121 111" fill="none" xmlns="http://www.w3.org/2000/svg">
<ellipse cx="36.3156" cy="3.52305" rx="2.5" ry="2.62469" transform="rotate(30 36.3156 3.52305)" fill="#53D258"/>
<ellipse cx="14.4235" cy="41.4415" rx="2.5" ry="2.62469" transform="rotate(30 14.4235 41.4415)" fill="#53D258"/>
<ellipse cx="68.6965" cy="22.2181" rx="2.5" ry="2.62469" transform="rotate(30 68.6965 22.2181)" fill="#53D258"/>
<ellipse cx="46.8039" cy="60.1365" rx="2.5" ry="2.62469" transform="rotate(30 46.8039 60.1365)" fill="#53D258"/>
<ellipse cx="101.077" cy="40.9131" rx="2.5" ry="2.62469" transform="rotate(30 101.077 40.9131)" fill="#53D258"/>
<ellipse cx="79.1847" cy="78.8315" rx="2.5" ry="2.62469" transform="rotate(30 79.1847 78.8315)" fill="#53D258"/>
<ellipse cx="25.3698" cy="22.4822" rx="2.5" ry="2.62469" transform="rotate(30 25.3698 22.4822)" fill="#53D258"/>
<ellipse cx="3.47772" cy="60.4004" rx="2.5" ry="2.62469" transform="rotate(30 3.47772 60.4004)" fill="#53D258"/>
<ellipse cx="57.7502" cy="41.1772" rx="2.5" ry="2.62469" transform="rotate(30 57.7502 41.1772)" fill="#53D258"/>
<ellipse cx="35.8581" cy="79.0954" rx="2.5" ry="2.62469" transform="rotate(30 35.8581 79.0954)" fill="#53D258"/>
<ellipse cx="90.131" cy="59.8722" rx="2.5" ry="2.62469" transform="rotate(30 90.131 59.8722)" fill="#53D258"/>
<ellipse cx="68.2389" cy="97.7904" rx="2.5" ry="2.62469" transform="rotate(30 68.2389 97.7904)" fill="#53D258"/>
<ellipse cx="52.506" cy="12.8706" rx="2.5" ry="2.62469" transform="rotate(30 52.506 12.8706)" fill="#53D258"/>
<ellipse cx="30.6139" cy="50.7889" rx="2.5" ry="2.62469" transform="rotate(30 30.6139 50.7889)" fill="#53D258"/>
<ellipse cx="84.8869" cy="31.5655" rx="2.5" ry="2.62469" transform="rotate(30 84.8869 31.5655)" fill="#53D258"/>
<ellipse cx="62.9943" cy="69.484" rx="2.5" ry="2.62469" transform="rotate(30 62.9943 69.484)" fill="#53D258"/>
<ellipse cx="117.267" cy="50.2606" rx="2.5" ry="2.62469" transform="rotate(30 117.267 50.2606)" fill="#53D258"/>
<ellipse cx="95.3752" cy="88.179" rx="2.5" ry="2.62469" transform="rotate(30 95.3752 88.179)" fill="#53D258"/>
<ellipse cx="41.5597" cy="31.8297" rx="2.5" ry="2.62469" transform="rotate(30 41.5597 31.8297)" fill="#53D258"/>
<ellipse cx="19.6677" cy="69.7479" rx="2.5" ry="2.62469" transform="rotate(30 19.6677 69.7479)" fill="#53D258"/>
<ellipse cx="73.9406" cy="50.5246" rx="2.5" ry="2.62469" transform="rotate(30 73.9406 50.5246)" fill="#53D258"/>
<ellipse cx="52.0485" cy="88.4428" rx="2.5" ry="2.62469" transform="rotate(30 52.0485 88.4428)" fill="#53D258"/>
<ellipse cx="106.321" cy="69.2197" rx="2.5" ry="2.62469" transform="rotate(30 106.321 69.2197)" fill="#53D258"/>
<ellipse cx="84.4294" cy="107.138" rx="2.5" ry="2.62469" transform="rotate(30 84.4294 107.138)" fill="#53D258"/>
</svg>
